# xmcd
#
# Track frame offsets:
#	150
#	14764
#	25175
#	37271
#	50718
#	67117
#	79819
#	92507
#	104946
#	117403
#	140066
#	155248
#	167353
#	184573
#	197967
#	216738
#
# Disc length: 3121 seconds
#
# Revision: 2
# Processed by: cddbd v1.5.2PL0 Copyright (c) Steve Scherf et al.
# Submitted via: EasyCDDAExtractor 2011.0.0.0
#
DISCID=fd0c2f10
DTITLE=Romanticos Eternos - V.A
DYEAR=2002
DGENRE=Blues
TTITLE0=Nat King Cole - Unforgetable
TTITLE1=Luis Armstrong - Wath A Wonderful World
TTITLE2=The Platers - Only You
TTITLE3=The Four Aces - Love Is A Many Splendored Thing
TTITLE4=The Righteous Brothers - Unchained Melody
TTITLE5=Dean Martin - Everybody Loves Somebody
TTITLE6=Percy Sledge - When A Man Loves A Woman
TTITLE7=Bryan Hyland - Sealed With A Kiss
TTITLE8=The Shirelles - Will You Love Me Tomorrow
TTITLE9=The Chi-Lites - Have You Seen Her
TTITLE10=Harold Melvin and The Blues Notes - If You Don't Know Me By Now
TTITLE11=The Skylinners - Since I Don't Have You
TTITLE12=Melissa Manchester - Midnight Blue
TTITLE13=The Three Degrees - When Will I See You Again
TTITLE14=Lobo - I'd Love You To Want Me
TTITLE15=Bread - Make It With You
EXTD=
EXTT0=
EXTT1=
EXTT2=
EXTT3=
EXTT4=
EXTT5=
EXTT6=
EXTT7=
EXTT8=
EXTT9=
EXTT10=
EXTT11=
EXTT12=
EXTT13=
EXTT14=
EXTT15=
PLAYORDER=
